<svg xmlns="http://www.w3.org/2000/svg" viewBox="0 0 470 250" width="470" height="250">
<rect width="470" height="250" rx="10" fill="#0D1117" stroke="#233043"/>
<text x="24" y="32" font-family="-apple-system,Segoe UI,Helvetica,Arial,sans-serif" font-size="14.5" font-weight="600"
      fill="#88C0D0" letter-spacing="0.6">MOST USED LANGUAGES</text>
<g><path d="M 128.00 44.00 A 88 88 0 1 1 110.19 45.82 L 118.69 86.95 A 46 46 0 1 0 128.00 86.00 Z" fill="#3572A5" stroke="#0D1117" stroke-width="2"><animate attributeName="opacity" from="0" to="1" dur="0.45s" begin="0.00s" fill="freeze"/></path><path d="M 110.19 45.82 A 88 88 0 0 1 123.61 44.11 L 125.70 86.06 A 46 46 0 0 0 118.69 86.95 Z" fill="#fedf5b" stroke="#0D1117" stroke-width="2"><animate attributeName="opacity" from="0" to="1" dur="0.45s" begin="0.09s" fill="freeze"/></path><path d="M 123.61 44.11 A 88 88 0 0 1 126.75 44.01 L 127.35 86.00 A 46 46 0 0 0 125.70 86.06 Z" fill="#f1e05a" stroke="#0D1117" stroke-width="2"><animate attributeName="opacity" from="0" to="1" dur="0.45s" begin="0.18s" fill="freeze"/></path><path d="M 126.75 44.01 A 88 88 0 0 1 127.05 44.01 L 127.51 86.00 A 46 46 0 0 0 127.35 86.00 Z" fill="#f34b7d" stroke="#0D1117" stroke-width="2"><animate attributeName="opacity" from="0" to="1" dur="0.45s" begin="0.27s" fill="freeze"/></path><path d="M 127.05 44.01 A 88 88 0 0 1 127.36 44.00 L 127.67 86.00 A 46 46 0 0 0 127.51 86.00 Z" fill="#012456" stroke="#0D1117" stroke-width="2"><animate attributeName="opacity" from="0" to="1" dur="0.45s" begin="0.36s" fill="freeze"/></path><path d="M 127.36 44.00 A 88 88 0 0 1 127.63 44.00 L 127.80 86.00 A 46 46 0 0 0 127.67 86.00 Z" fill="#ecdebe" stroke="#0D1117" stroke-width="2"><animate attributeName="opacity" from="0" to="1" dur="0.45s" begin="0.45s" fill="freeze"/></path><path d="M 127.63 44.00 A 88 88 0 0 1 128.00 44.00 L 128.00 86.00 A 46 46 0 0 0 127.80 86.00 Z" fill="#4C566A" stroke="#0D1117" stroke-width="2"><animate attributeName="opacity" from="0" to="1" dur="0.45s" begin="0.54s" fill="freeze"/></path></g>
<text x="128" y="130" text-anchor="middle" font-family="-apple-system,Segoe UI,Helvetica,Arial,sans-serif" font-size="19"
      font-weight="700" fill="#E6EDF3">7</text>
<text x="128" y="148" text-anchor="middle" font-family="-apple-system,Segoe UI,Helvetica,Arial,sans-serif" font-size="10.5"
      fill="#8B98A5" letter-spacing="0.8">LANGUAGES</text>
<rect x="268" y="37" width="11" height="11" rx="2.5" fill="#3572A5"/><text x="288" y="46" font-family="-apple-system,Segoe UI,Helvetica,Arial,sans-serif" font-size="13" fill="#E6EDF3">Python</text><text x="452" y="46" font-family="-apple-system,Segoe UI,Helvetica,Arial,sans-serif" font-size="12.5" fill="#8B98A5" text-anchor="end">96.8%</text><rect x="268" y="63" width="11" height="11" rx="2.5" fill="#fedf5b"/><text x="288" y="72" font-family="-apple-system,Segoe UI,Helvetica,Arial,sans-serif" font-size="13" fill="#E6EDF3">Cython</text><text x="452" y="72" font-family="-apple-system,Segoe UI,Helvetica,Arial,sans-serif" font-size="12.5" fill="#8B98A5" text-anchor="end">2.4%</text><rect x="268" y="89" width="11" height="11" rx="2.5" fill="#f1e05a"/><text x="288" y="98" font-family="-apple-system,Segoe UI,Helvetica,Arial,sans-serif" font-size="13" fill="#E6EDF3">JavaScript</text><text x="452" y="98" font-family="-apple-system,Segoe UI,Helvetica,Arial,sans-serif" font-size="12.5" fill="#8B98A5" text-anchor="end">0.6%</text><rect x="268" y="115" width="11" height="11" rx="2.5" fill="#f34b7d"/><text x="288" y="124" font-family="-apple-system,Segoe UI,Helvetica,Arial,sans-serif" font-size="13" fill="#E6EDF3">C++</text><text x="452" y="124" font-family="-apple-system,Segoe UI,Helvetica,Arial,sans-serif" font-size="12.5" fill="#8B98A5" text-anchor="end">0.1%</text><rect x="268" y="141" width="11" height="11" rx="2.5" fill="#012456"/><text x="288" y="150" font-family="-apple-system,Segoe UI,Helvetica,Arial,sans-serif" font-size="13" fill="#E6EDF3">PowerShell</text><text x="452" y="150" font-family="-apple-system,Segoe UI,Helvetica,Arial,sans-serif" font-size="12.5" fill="#8B98A5" text-anchor="end">0.1%</text><rect x="268" y="167" width="11" height="11" rx="2.5" fill="#ecdebe"/><text x="288" y="176" font-family="-apple-system,Segoe UI,Helvetica,Arial,sans-serif" font-size="13" fill="#E6EDF3">Roff</text><text x="452" y="176" font-family="-apple-system,Segoe UI,Helvetica,Arial,sans-serif" font-size="12.5" fill="#8B98A5" text-anchor="end">0.0%</text><rect x="268" y="193" width="11" height="11" rx="2.5" fill="#4C566A"/><text x="288" y="202" font-family="-apple-system,Segoe UI,Helvetica,Arial,sans-serif" font-size="13" fill="#E6EDF3">Other</text><text x="452" y="202" font-family="-apple-system,Segoe UI,Helvetica,Arial,sans-serif" font-size="12.5" fill="#8B98A5" text-anchor="end">0.1%</text>
</svg>