<svg xmlns="http://www.w3.org/2000/svg" viewBox="-30 -1595 13179 1875" width="560" height="80" preserveAspectRatio="xMidYMid meet" role="img" aria-label="Hi, I'm Nathan"><title>Hi, I'm Nathan</title><defs><clipPath id="c0"><rect x="0" y="-1595" width="0" height="1875"><animate attributeName="width" from="0" to="2525" dur="0.552s" begin="0.250s" fill="freeze"/></rect></clipPath><clipPath id="c1"><rect x="2444" y="-1595" width="0" height="1875"><animate attributeName="width" from="0" to="521" dur="0.114s" begin="0.762s" fill="freeze"/></rect></clipPath><clipPath id="c2"><rect x="2905" y="-1595" width="0" height="1875"><animate attributeName="width" from="0" to="165" dur="0.036s" begin="0.863s" fill="freeze"/></rect></clipPath><clipPath id="c3"><rect x="3678" y="-1595" width="0" height="1875"><animate attributeName="width" from="0" to="1325" dur="0.289s" begin="0.798s" fill="freeze"/></rect></clipPath><clipPath id="c4"><rect x="5177" y="-1595" width="0" height="1875"><animate attributeName="width" from="0" to="102" dur="0.022s" begin="1.079s" fill="freeze"/></rect></clipPath><clipPath id="c5"><rect x="5387" y="-1595" width="0" height="1875"><animate attributeName="width" from="0" to="1385" dur="0.303s" begin="0.996s" fill="freeze"/></rect></clipPath><clipPath id="c6"><rect x="7163" y="-1595" width="0" height="1875"><animate attributeName="width" from="0" to="2630" dur="0.574s" begin="1.097s" fill="freeze"/></rect></clipPath><clipPath id="c7"><rect x="9463" y="-1595" width="0" height="1875"><animate attributeName="width" from="0" to="794" dur="0.173s" begin="1.611s" fill="freeze"/></rect></clipPath><clipPath id="c8"><rect x="9784" y="-1595" width="0" height="1875"><animate attributeName="width" from="0" to="1211" dur="0.265s" begin="1.692s" fill="freeze"/></rect></clipPath><clipPath id="c9"><rect x="10666" y="-1595" width="0" height="1875"><animate attributeName="width" from="0" to="838" dur="0.183s" begin="1.892s" fill="freeze"/></rect></clipPath><clipPath id="c10"><rect x="11414" y="-1595" width="0" height="1875"><animate attributeName="width" from="0" to="794" dur="0.173s" begin="2.014s" fill="freeze"/></rect></clipPath><clipPath id="c11"><rect x="12132" y="-1595" width="0" height="1875"><animate attributeName="width" from="0" to="987" dur="0.216s" begin="2.112s" fill="freeze"/></rect></clipPath></defs><g fill="#88C0D0"><path d="M1519.0 -1451Q1519.0 -1416 1500.0 -1382.0Q1481.0 -1348 1451.0 -1319.0Q1421.0 -1290 1383.5 -1266.5Q1346.0 -1243 1309.0 -1228Q1299.0 -1186 1293.0 -1134.5Q1287.0 -1083 1285.0 -1020Q1283.0 -942 1279.0 -865.0Q1275.0 -788 1267.0 -712Q1348.0 -715 1444.0 -718.5Q1540.0 -722 1645.0 -725.0Q1750.0 -728 1860.5 -730.0Q1971.0 -732 2081.0 -732Q2089.0 -892 2116.0 -1016.0Q2143.0 -1140 2186.5 -1225.0Q2230.0 -1310 2289.0 -1354.0Q2348.0 -1398 2420.0 -1398Q2432.0 -1398 2449.5 -1396.0Q2467.0 -1394 2484.0 -1388.5Q2501.0 -1383 2513.0 -1372.5Q2525.0 -1362 2525.0 -1344Q2525.0 -1339 2524.0 -1334.5Q2523.0 -1330 2520.0 -1325Q2509.0 -1307 2490.0 -1307Q2482.0 -1307 2477.5 -1309.5Q2473.0 -1312 2466.5 -1314.5Q2460.0 -1317 2450.0 -1319.5Q2440.0 -1322 2422.0 -1322Q2407.0 -1322 2383.5 -1316.5Q2360.0 -1311 2333.0 -1291.0Q2306.0 -1271 2277.5 -1232.5Q2249.0 -1194 2224.5 -1128.5Q2200.0 -1063 2181.5 -966.0Q2163.0 -869 2157.0 -732Q2223.0 -731 2287.0 -730.0Q2351.0 -729 2413.0 -727Q2430.0 -727 2439.5 -715.5Q2449.0 -704 2449.0 -688Q2449.0 -672 2438.0 -662.0Q2427.0 -652 2412.0 -652Q2392.0 -652 2370.5 -652.5Q2349.0 -653 2319.5 -654.0Q2290.0 -655 2250.0 -656.0Q2210.0 -657 2155.0 -657Q2154.0 -641 2154.0 -625.0Q2154.0 -609 2154.0 -592Q2154.0 -482 2162.5 -395.0Q2171.0 -308 2183.5 -241.0Q2196.0 -174 2211.0 -126.5Q2226.0 -79 2239.0 -48.5Q2252.0 -18 2260.5 -3.5Q2269.0 11 2269.0 11Q2276.0 21 2276.0 33Q2276.0 48 2265.0 59.5Q2254.0 71 2238.0 71Q2219.0 71 2208.0 55Q2206.0 52 2185.5 16.0Q2165.0 -20 2141.0 -97.5Q2117.0 -175 2097.5 -296.5Q2078.0 -418 2078.0 -592V-657Q1967.0 -657 1855.0 -655.0Q1743.0 -653 1637.5 -650.0Q1532.0 -647 1435.5 -643.5Q1339.0 -640 1258.0 -637Q1239.0 -498 1199.5 -375.0Q1160.0 -252 1086.5 -159.5Q1013.0 -67 899.0 -13.5Q785.0 40 618.0 40Q530.0 40 447.5 21.5Q365.0 3 294.0 -30.5Q223.0 -64 166.0 -111.0Q109.0 -158 73.0 -214Q67.0 -223 67.0 -234Q67.0 -249 77.5 -260.5Q88.0 -272 105.0 -272Q114.0 -272 123.0 -267.5Q132.0 -263 137.0 -255Q168.0 -206 217.5 -166.0Q267.0 -126 330.0 -97.0Q393.0 -68 466.5 -52.0Q540.0 -36 619.0 -36Q766.0 -36 866.0 -82.5Q966.0 -129 1029.5 -210.0Q1093.0 -291 1127.5 -399.5Q1162.0 -508 1179.0 -633Q1083.0 -628 1027.0 -625.0Q971.0 -622 969.0 -622Q954.0 -622 941.5 -631.5Q929.0 -641 929.0 -658Q929.0 -674 938.5 -685.0Q948.0 -696 964.0 -698Q966.0 -698 1026.0 -701.0Q1086.0 -704 1188.0 -709Q1196.0 -786 1200.5 -864.5Q1205.0 -943 1209.0 -1023Q1211.0 -1074 1216.5 -1121.5Q1222.0 -1169 1230.0 -1208Q1207.0 -1203 1178.5 -1199.5Q1150.0 -1196 1122.0 -1196Q1034.0 -1196 949.0 -1210.0Q864.0 -1224 778.5 -1240.5Q693.0 -1257 606.5 -1271.0Q520.0 -1285 430.0 -1285Q356.0 -1285 291.5 -1269.5Q227.0 -1254 179.0 -1222.0Q131.0 -1190 103.5 -1141.5Q76.0 -1093 76.0 -1027Q76.0 -985 91.0 -953.0Q106.0 -921 125.0 -899.0Q144.0 -877 161.5 -864.5Q179.0 -852 184.0 -849Q202.0 -836 202.0 -816Q202.0 -800 192.0 -789.5Q182.0 -779 167.0 -779Q160.0 -779 153.5 -781.5Q147.0 -784 142.0 -787Q119.0 -801 94.0 -823.0Q69.0 -845 48.0 -875.5Q27.0 -906 13.5 -944.0Q0.0 -982 0.0 -1027Q0.0 -1115 38.5 -1178.5Q77.0 -1242 139.0 -1282.5Q201.0 -1323 277.5 -1342.0Q354.0 -1361 431.0 -1361Q518.0 -1361 603.5 -1346.5Q689.0 -1332 775.0 -1315.0Q861.0 -1298 947.5 -1283.5Q1034.0 -1269 1124.0 -1269Q1160.0 -1269 1189.0 -1271.5Q1218.0 -1274 1244.0 -1282Q1262.0 -1345 1285.5 -1390.5Q1309.0 -1436 1335.5 -1465.5Q1362.0 -1495 1389.0 -1509.0Q1416.0 -1523 1441.0 -1523Q1474.0 -1523 1496.5 -1503.0Q1519.0 -1483 1519.0 -1451ZM1436.0 -1452Q1428.0 -1452 1414.5 -1443.5Q1401.0 -1435 1385.0 -1417.5Q1369.0 -1400 1353.0 -1373.0Q1337.0 -1346 1325.0 -1309Q1358.0 -1324 1383.0 -1348.0Q1408.0 -1372 1423.0 -1395.5Q1438.0 -1419 1442.0 -1435.5Q1446.0 -1452 1436.0 -1452Z" clip-path="url(#c0)"/><path d="M2626.0 -785Q2626.0 -747 2599.5 -720.5Q2573.0 -694 2535.0 -694Q2497.0 -694 2470.5 -720.5Q2444.0 -747 2444.0 -785Q2444.0 -804 2451.0 -820.5Q2458.0 -837 2470.5 -849.5Q2483.0 -862 2499.5 -869.0Q2516.0 -876 2535.0 -876Q2554.0 -876 2570.5 -869.0Q2587.0 -862 2599.5 -849.5Q2612.0 -837 2619.0 -820.5Q2626.0 -804 2626.0 -785ZM2464.0 -199Q2464.0 -343 2482.0 -486Q2484.0 -500 2494.5 -510.5Q2505.0 -521 2522.0 -521Q2537.0 -521 2547.0 -509.5Q2557.0 -498 2557.0 -483Q2557.0 -477 2554.5 -447.0Q2552.0 -417 2548.5 -375.5Q2545.0 -334 2542.5 -287.5Q2540.0 -241 2540.0 -202Q2540.0 -149 2550.5 -116.5Q2561.0 -84 2577.5 -66.0Q2594.0 -48 2612.5 -42.0Q2631.0 -36 2648.0 -36Q2676.0 -36 2706.0 -56.0Q2736.0 -76 2767.5 -112.0Q2799.0 -148 2831.0 -198.5Q2863.0 -249 2894.0 -311Q2899.0 -321 2908.0 -326.5Q2917.0 -332 2928.0 -332Q2944.0 -332 2954.5 -320.0Q2965.0 -308 2965.0 -294Q2965.0 -284 2961.0 -277Q2949.0 -254 2931.0 -221.0Q2913.0 -188 2890.0 -153.0Q2867.0 -118 2839.5 -83.5Q2812.0 -49 2781.0 -21.5Q2750.0 6 2716.0 23.0Q2682.0 40 2647.0 40Q2602.0 40 2568.0 21.0Q2534.0 2 2510.5 -30.0Q2487.0 -62 2475.5 -105.5Q2464.0 -149 2464.0 -199ZM2570.0 -785Q2570.0 -799 2559.5 -809.5Q2549.0 -820 2535.0 -820Q2521.0 -820 2511.0 -809.5Q2501.0 -799 2501.0 -785Q2501.0 -771 2511.0 -761.0Q2521.0 -751 2535.0 -751Q2549.0 -751 2559.5 -761.0Q2570.0 -771 2570.0 -785Z" clip-path="url(#c1)"/><path d="M3070.0 -37Q3070.0 35 3048.5 102.5Q3027.0 170 2970.0 224Q2957.0 235 2943.0 235Q2929.0 235 2917.0 224.5Q2905.0 214 2905.0 198Q2905.0 182 2916.0 171Q2954.0 132 2974.5 81.5Q2995.0 31 2995.0 -34Q2995.0 -50 3004.5 -61.5Q3014.0 -73 3031.0 -73Q3046.0 -73 3057.5 -63.5Q3069.0 -54 3070.0 -37Z" clip-path="url(#c2)"/><path d="M4943.0 -1550Q4967.0 -1550 4985.0 -1529.0Q5003.0 -1508 5003.0 -1477Q5003.0 -1435 4969.5 -1383.5Q4936.0 -1332 4873.0 -1276Q4862.0 -1220 4854.0 -1148.5Q4846.0 -1077 4846.0 -986Q4846.0 -846 4837.0 -713.0Q4828.0 -580 4803.0 -463.0Q4778.0 -346 4732.5 -248.0Q4687.0 -150 4613.5 -79.5Q4540.0 -9 4435.0 30.5Q4330.0 70 4186.0 70Q4066.0 70 3972.0 42.0Q3878.0 14 3812.5 -35.5Q3747.0 -85 3712.5 -151.5Q3678.0 -218 3678.0 -296Q3678.0 -374 3711.0 -440.5Q3744.0 -507 3800.0 -556.5Q3856.0 -606 3930.5 -634.0Q4005.0 -662 4089.0 -662Q4102.0 -662 4115.5 -661.5Q4129.0 -661 4140.0 -657.5Q4151.0 -654 4158.5 -645.5Q4166.0 -637 4166.0 -622Q4166.0 -606 4154.5 -595.5Q4143.0 -585 4128.0 -585Q4118.0 -585 4108.5 -585.5Q4099.0 -586 4089.0 -586Q4021.0 -586 3960.0 -564.0Q3899.0 -542 3853.0 -503.0Q3807.0 -464 3780.0 -411.0Q3753.0 -358 3753.0 -296Q3753.0 -241 3773.0 -198.0Q3793.0 -155 3827.0 -122.5Q3861.0 -90 3905.5 -67.0Q3950.0 -44 3999.0 -30.0Q4048.0 -16 4098.5 -9.5Q4149.0 -3 4195.0 -3Q4322.0 -3 4414.0 -39.0Q4506.0 -75 4569.5 -140.0Q4633.0 -205 4672.0 -295.5Q4711.0 -386 4733.0 -495.5Q4755.0 -605 4762.5 -729.5Q4770.0 -854 4771.0 -987Q4772.0 -1051 4776.0 -1112.5Q4780.0 -1174 4787.0 -1224Q4747.0 -1203 4699.0 -1183.0Q4651.0 -1163 4602.5 -1141.5Q4554.0 -1120 4508.0 -1095.5Q4462.0 -1071 4426.5 -1041.5Q4391.0 -1012 4369.5 -975.5Q4348.0 -939 4348.0 -894Q4348.0 -853 4362.0 -822.5Q4376.0 -792 4397.0 -771.0Q4418.0 -750 4443.0 -736.5Q4468.0 -723 4489.5 -715.5Q4511.0 -708 4526.5 -704.5Q4542.0 -701 4544.0 -701Q4561.0 -696 4567.0 -687.5Q4573.0 -679 4573.0 -667Q4573.0 -650 4563.0 -639.5Q4553.0 -629 4538.0 -629Q4536.0 -629 4529.5 -629.5Q4523.0 -630 4521.0 -631Q4488.0 -638 4445.0 -655.5Q4402.0 -673 4363.5 -704.5Q4325.0 -736 4298.5 -784.0Q4272.0 -832 4272.0 -901Q4272.0 -962 4302.0 -1009.0Q4332.0 -1056 4380.5 -1093.0Q4429.0 -1130 4488.5 -1159.0Q4548.0 -1188 4607.0 -1213.5Q4666.0 -1239 4718.0 -1263.0Q4770.0 -1287 4803.0 -1315Q4831.0 -1436 4868.0 -1493.0Q4905.0 -1550 4943.0 -1550Z" clip-path="url(#c3)"/><path d="M5252.0 -1172Q5250.0 -1158 5239.0 -1148.5Q5228.0 -1139 5214.0 -1139Q5200.0 -1139 5188.5 -1150.0Q5177.0 -1161 5177.0 -1178Q5177.0 -1182 5177.5 -1186.5Q5178.0 -1191 5179.0 -1198L5204.0 -1406Q5206.0 -1421 5217.0 -1430.0Q5228.0 -1439 5242.0 -1439Q5259.0 -1439 5269.0 -1427.5Q5279.0 -1416 5279.0 -1401Q5279.0 -1397 5277.5 -1383.5Q5276.0 -1370 5275.0 -1363Z" clip-path="url(#c4)"/><path d="M5622.0 -89Q5637.0 -119 5660.5 -163.5Q5684.0 -208 5709.5 -253.0Q5735.0 -298 5759.5 -338.0Q5784.0 -378 5801.0 -399Q5830.0 -434 5861.0 -449.0Q5892.0 -464 5918.0 -464Q5944.0 -464 5962.5 -453.0Q5981.0 -442 5993.0 -423.5Q6005.0 -405 6011.0 -380.5Q6017.0 -356 6017.0 -328Q6017.0 -312 6015.5 -286.0Q6014.0 -260 6012.5 -230.0Q6011.0 -200 6009.5 -168.0Q6008.0 -136 6007.0 -108Q6022.0 -138 6041.0 -174.5Q6060.0 -211 6079.5 -247.0Q6099.0 -283 6117.0 -314.5Q6135.0 -346 6150.0 -366Q6193.0 -425 6230.5 -445.0Q6268.0 -465 6297.0 -465Q6331.0 -465 6353.0 -452.5Q6375.0 -440 6387.5 -420.5Q6400.0 -401 6405.0 -377.0Q6410.0 -353 6410.0 -331Q6410.0 -297 6405.0 -260.0Q6400.0 -223 6400.0 -172Q6400.0 -151 6402.0 -130.0Q6404.0 -109 6410.5 -93.0Q6417.0 -77 6431.0 -67.0Q6445.0 -57 6469.0 -57Q6495.0 -57 6520.0 -70.5Q6545.0 -84 6568.0 -106.0Q6591.0 -128 6611.5 -156.0Q6632.0 -184 6649.0 -212.0Q6666.0 -240 6679.0 -265.5Q6692.0 -291 6700.0 -309Q6705.0 -320 6714.0 -326.0Q6723.0 -332 6734.0 -332Q6751.0 -332 6761.5 -319.5Q6772.0 -307 6772.0 -293Q6772.0 -286 6769.0 -279Q6765.0 -271 6753.0 -245.5Q6741.0 -220 6721.0 -187.5Q6701.0 -155 6674.5 -119.0Q6648.0 -83 6616.0 -52.5Q6584.0 -22 6547.0 -2.5Q6510.0 17 6469.0 17Q6425.0 17 6397.5 1.5Q6370.0 -14 6353.5 -40.0Q6337.0 -66 6331.0 -100.0Q6325.0 -134 6325.0 -171Q6325.0 -220 6330.0 -261.5Q6335.0 -303 6335.0 -326Q6335.0 -351 6330.5 -364.0Q6326.0 -377 6319.5 -382.5Q6313.0 -388 6307.0 -388.5Q6301.0 -389 6298.0 -389Q6274.0 -389 6247.5 -362.5Q6221.0 -336 6193.0 -292.0Q6165.0 -248 6135.5 -192.0Q6106.0 -136 6076.0 -78Q6059.0 -46 6047.5 -25.0Q6036.0 -4 6025.5 8.0Q6015.0 20 6005.0 25.0Q5995.0 30 5983.0 30Q5957.0 30 5943.5 12.0Q5930.0 -6 5930.0 -35Q5930.0 -50 5931.0 -75.0Q5932.0 -100 5933.0 -130.0Q5934.0 -160 5936.0 -192.0Q5938.0 -224 5939.0 -253.5Q5940.0 -283 5941.0 -306.0Q5942.0 -329 5942.0 -341Q5942.0 -367 5933.0 -378.5Q5924.0 -390 5912.0 -390Q5901.0 -390 5887.5 -382.0Q5874.0 -374 5856.0 -351Q5842.0 -333 5820.5 -298.5Q5799.0 -264 5775.0 -222.0Q5751.0 -180 5727.5 -136.0Q5704.0 -92 5687.0 -57Q5666.0 -15 5645.0 0.5Q5624.0 16 5604.0 16Q5575.0 16 5561.0 -1.5Q5547.0 -19 5547.0 -48Q5547.0 -51 5548.5 -84.0Q5550.0 -117 5552.0 -164.5Q5554.0 -212 5556.5 -266.0Q5559.0 -320 5561.0 -367Q5562.0 -392 5559.0 -413.0Q5556.0 -434 5551.0 -438Q5543.0 -436 5519.5 -401.0Q5496.0 -366 5460.0 -279Q5455.0 -268 5445.0 -262.0Q5435.0 -256 5424.0 -256Q5407.0 -256 5397.0 -267.5Q5387.0 -279 5387.0 -294Q5387.0 -301 5390.0 -309Q5435.0 -416 5476.0 -466.5Q5517.0 -517 5556.0 -517Q5579.0 -517 5594.5 -506.5Q5610.0 -496 5619.0 -479.5Q5628.0 -463 5632.0 -442.0Q5636.0 -421 5636.0 -401Q5636.0 -312 5631.5 -238.0Q5627.0 -164 5622.0 -89Z" clip-path="url(#c5)"/><path d="M9793.0 -1504Q9791.0 -1489 9780.0 -1480.0Q9769.0 -1471 9755.0 -1471Q9753.0 -1471 9748.0 -1471.5Q9743.0 -1472 9725.0 -1472Q9706.0 -1472 9676.5 -1468.0Q9647.0 -1464 9611.5 -1451.5Q9576.0 -1439 9537.5 -1415.0Q9499.0 -1391 9462.0 -1350.5Q9425.0 -1310 9392.0 -1250.5Q9359.0 -1191 9336.0 -1107Q9324.0 -1065 9308.5 -986.5Q9293.0 -908 9275.5 -810.0Q9258.0 -712 9240.5 -601.0Q9223.0 -490 9207.5 -383.0Q9192.0 -276 9179.0 -179.5Q9166.0 -83 9159.0 -14Q9157.0 -1 9147.5 9.5Q9138.0 20 9124.0 20Q9110.0 20 9099.5 13.0Q9089.0 6 9085.0 -8Q9072.0 -56 9044.0 -141.0Q9016.0 -226 8979.5 -332.5Q8943.0 -439 8900.0 -559.0Q8857.0 -679 8814.5 -796.5Q8772.0 -914 8732.5 -1021.5Q8693.0 -1129 8663.0 -1211Q8658.0 -1155 8647.5 -1086.5Q8637.0 -1018 8619.5 -939.5Q8602.0 -861 8576.0 -773.5Q8550.0 -686 8514.0 -592Q8458.0 -448 8382.5 -346.0Q8307.0 -244 8224.0 -176.0Q8141.0 -108 8055.5 -68.5Q7970.0 -29 7895.0 -9.0Q7820.0 11 7760.0 16.5Q7700.0 22 7668.0 22Q7558.0 22 7465.5 -7.0Q7373.0 -36 7305.5 -89.5Q7238.0 -143 7200.5 -217.5Q7163.0 -292 7163.0 -382Q7163.0 -463 7199.5 -533.5Q7236.0 -604 7297.5 -656.0Q7359.0 -708 7438.5 -738.0Q7518.0 -768 7604.0 -768Q7675.0 -768 7731.5 -754.0Q7788.0 -740 7831.5 -718.5Q7875.0 -697 7906.5 -672.0Q7938.0 -647 7958.5 -624.5Q7979.0 -602 7989.5 -586.0Q8000.0 -570 8002.0 -567Q8006.0 -559 8006.0 -549Q8006.0 -535 7995.5 -523.0Q7985.0 -511 7968.0 -511Q7946.0 -511 7935.0 -531Q7934.0 -534 7915.5 -559.5Q7897.0 -585 7858.5 -615.0Q7820.0 -645 7759.0 -669.5Q7698.0 -694 7611.0 -694Q7540.0 -694 7472.5 -670.0Q7405.0 -646 7353.0 -604.0Q7301.0 -562 7269.5 -504.5Q7238.0 -447 7238.0 -380Q7238.0 -307 7272.0 -246.5Q7306.0 -186 7364.5 -143.0Q7423.0 -100 7500.5 -76.5Q7578.0 -53 7666.0 -53Q7700.0 -53 7756.0 -58.0Q7812.0 -63 7881.5 -81.0Q7951.0 -99 8028.0 -135.5Q8105.0 -172 8180.0 -235.0Q8255.0 -298 8323.5 -392.0Q8392.0 -486 8444.0 -620Q8498.0 -758 8528.5 -882.5Q8559.0 -1007 8574.0 -1107.0Q8589.0 -1207 8592.5 -1277.5Q8596.0 -1348 8596.0 -1378V-1398Q8596.0 -1414 8606.5 -1425.5Q8617.0 -1437 8634.0 -1437Q8659.0 -1437 8669.0 -1412Q8672.0 -1405 8686.5 -1365.0Q8701.0 -1325 8724.5 -1261.5Q8748.0 -1198 8778.5 -1115.0Q8809.0 -1032 8843.0 -938.5Q8877.0 -845 8913.0 -745.0Q8949.0 -645 8983.5 -548.0Q9018.0 -451 9049.0 -361.0Q9080.0 -271 9105.0 -197Q9116.0 -277 9129.0 -366.5Q9142.0 -456 9156.5 -547.5Q9171.0 -639 9185.5 -727.0Q9200.0 -815 9214.5 -892.0Q9229.0 -969 9241.0 -1030.0Q9253.0 -1091 9263.0 -1128Q9285.0 -1216 9326.0 -1292.5Q9367.0 -1369 9425.5 -1426.0Q9484.0 -1483 9559.5 -1515.5Q9635.0 -1548 9727.0 -1548Q9762.0 -1548 9777.5 -1540.0Q9793.0 -1532 9793.0 -1509V-1504Z" clip-path="url(#c6)"/><path d="M10254.0 -279Q10250.0 -271 10237.5 -245.5Q10225.0 -220 10205.5 -187.0Q10186.0 -154 10160.0 -118.0Q10134.0 -82 10102.0 -52.0Q10070.0 -22 10033.0 -2.5Q9996.0 17 9955.0 17Q9897.0 17 9857.5 -20.0Q9818.0 -57 9800.0 -113Q9766.0 -56 9719.0 -22.5Q9672.0 11 9625.0 11Q9588.0 11 9558.0 -2.5Q9528.0 -16 9507.0 -40.5Q9486.0 -65 9474.5 -98.0Q9463.0 -131 9463.0 -170Q9463.0 -248 9489.5 -307.5Q9516.0 -367 9557.0 -407.0Q9598.0 -447 9647.5 -467.0Q9697.0 -487 9743.0 -487Q9774.0 -487 9800.0 -478.5Q9826.0 -470 9844.5 -460.0Q9863.0 -450 9873.0 -441.5Q9883.0 -433 9884.0 -432Q9895.0 -419 9895.0 -405Q9895.0 -390 9884.0 -378.5Q9873.0 -367 9858.0 -367Q9842.0 -367 9831.0 -378Q9829.0 -380 9822.0 -385.5Q9815.0 -391 9803.0 -397.0Q9791.0 -403 9774.5 -407.5Q9758.0 -412 9737.0 -412Q9706.0 -412 9671.0 -398.0Q9636.0 -384 9607.0 -354.5Q9578.0 -325 9558.5 -280.5Q9539.0 -236 9539.0 -175Q9539.0 -156 9543.0 -136.5Q9547.0 -117 9557.0 -101.0Q9567.0 -85 9584.0 -75.0Q9601.0 -65 9626.0 -65Q9644.0 -65 9667.5 -77.0Q9691.0 -89 9712.5 -114.0Q9734.0 -139 9751.5 -177.0Q9769.0 -215 9776.0 -267Q9778.0 -281 9789.0 -290.5Q9800.0 -300 9815.0 -300Q9829.0 -300 9839.5 -289.0Q9850.0 -278 9851.0 -264Q9852.0 -245 9855.0 -210.5Q9858.0 -176 9868.5 -142.0Q9879.0 -108 9900.0 -83.0Q9921.0 -58 9958.0 -58Q9982.0 -58 10005.5 -71.0Q10029.0 -84 10051.5 -105.5Q10074.0 -127 10094.5 -154.5Q10115.0 -182 10132.0 -210.0Q10149.0 -238 10162.0 -264.0Q10175.0 -290 10184.0 -309Q10189.0 -320 10198.5 -326.0Q10208.0 -332 10219.0 -332Q10236.0 -332 10246.5 -319.5Q10257.0 -307 10257.0 -293Q10257.0 -286 10254.0 -279Z" clip-path="url(#c7)"/><path d="M10995.0 -1001Q10995.0 -985 10984.0 -975.5Q10973.0 -966 10957.0 -966H10450.0V-955Q10450.0 -894 10441.0 -825.0Q10432.0 -756 10416.5 -687.5Q10401.0 -619 10381.5 -554.0Q10362.0 -489 10341.5 -434.0Q10321.0 -379 10301.0 -338.5Q10281.0 -298 10265.0 -278Q10278.0 -232 10296.0 -192.5Q10314.0 -153 10336.5 -123.5Q10359.0 -94 10385.0 -77.0Q10411.0 -60 10441.0 -60Q10476.0 -60 10510.5 -89.5Q10545.0 -119 10574.5 -159.5Q10604.0 -200 10626.5 -241.5Q10649.0 -283 10659.0 -308Q10669.0 -332 10694.0 -332Q10711.0 -332 10721.5 -320.0Q10732.0 -308 10732.0 -294Q10732.0 -287 10729.0 -280Q10726.0 -273 10714.5 -248.0Q10703.0 -223 10684.5 -190.0Q10666.0 -157 10641.5 -120.5Q10617.0 -84 10586.5 -54.0Q10556.0 -24 10521.0 -4.0Q10486.0 16 10447.0 16Q10378.0 16 10323.0 -29.0Q10268.0 -74 10229.5 -155.0Q10191.0 -236 10171.0 -347.0Q10151.0 -458 10151.0 -590Q10151.0 -623 10152.0 -667.5Q10153.0 -712 10156.0 -761.5Q10159.0 -811 10165.0 -863.5Q10171.0 -916 10181.0 -966H9822.0Q9806.0 -966 9795.0 -975.5Q9784.0 -985 9784.0 -1001Q9784.0 -1017 9795.0 -1026.5Q9806.0 -1036 9822.0 -1036H10198.0Q10208.0 -1072 10221.5 -1102.0Q10235.0 -1132 10252.5 -1154.0Q10270.0 -1176 10291.5 -1188.5Q10313.0 -1201 10339.0 -1201Q10364.0 -1201 10382.5 -1188.5Q10401.0 -1176 10414.0 -1154.0Q10427.0 -1132 10434.5 -1102.0Q10442.0 -1072 10446.0 -1036H10957.0Q10973.0 -1036 10984.0 -1026.5Q10995.0 -1017 10995.0 -1001ZM10242.0 -378Q10272.0 -444 10296.5 -520.5Q10321.0 -597 10338.5 -675.0Q10356.0 -753 10365.5 -828.0Q10375.0 -903 10375.0 -966H10257.0Q10243.0 -904 10234.5 -812.5Q10226.0 -721 10226.0 -590Q10226.0 -517 10230.0 -467.5Q10234.0 -418 10242.0 -378ZM10335.0 -1126Q10326.0 -1126 10309.0 -1106.5Q10292.0 -1087 10275.0 -1036H10371.0Q10366.0 -1078 10356.5 -1102.0Q10347.0 -1126 10335.0 -1126ZM10258.0 -306V-305Z" clip-path="url(#c8)"/><path d="M10742.0 -85Q10758.0 -119 10779.0 -158.5Q10800.0 -198 10824.0 -239.5Q10848.0 -281 10875.0 -322.0Q10902.0 -363 10931.0 -399Q10960.0 -434 10989.5 -449.5Q11019.0 -465 11045.0 -465Q11071.0 -465 11090.5 -454.5Q11110.0 -444 11122.5 -426.0Q11135.0 -408 11141.5 -384.0Q11148.0 -360 11148.0 -332Q11148.0 -309 11143.5 -270.5Q11139.0 -232 11139.0 -190Q11139.0 -166 11141.5 -142.5Q11144.0 -119 11150.5 -100.5Q11157.0 -82 11170.0 -70.5Q11183.0 -59 11204.0 -59Q11228.0 -59 11252.0 -72.5Q11276.0 -86 11299.0 -108.5Q11322.0 -131 11343.0 -158.5Q11364.0 -186 11381.0 -213.5Q11398.0 -241 11411.0 -266.5Q11424.0 -292 11432.0 -309Q11442.0 -332 11467.0 -332Q11484.0 -332 11494.0 -320.0Q11504.0 -308 11504.0 -294Q11504.0 -286 11501.0 -279Q11497.0 -271 11485.5 -246.0Q11474.0 -221 11454.5 -188.0Q11435.0 -155 11409.0 -119.0Q11383.0 -83 11351.5 -52.5Q11320.0 -22 11283.5 -2.5Q11247.0 17 11207.0 17Q11161.0 17 11133.0 -2.5Q11105.0 -22 11089.5 -52.0Q11074.0 -82 11068.5 -119.0Q11063.0 -156 11063.0 -191Q11063.0 -209 11064.5 -229.5Q11066.0 -250 11068.0 -270.0Q11070.0 -290 11071.5 -307.5Q11073.0 -325 11073.0 -337Q11073.0 -368 11064.5 -379.0Q11056.0 -390 11045.0 -390Q11029.0 -390 11008.5 -371.5Q10988.0 -353 10965.5 -323.0Q10943.0 -293 10920.5 -255.5Q10898.0 -218 10877.0 -181.0Q10856.0 -144 10839.0 -110.5Q10822.0 -77 10811.0 -55Q10790.0 -13 10768.5 1.5Q10747.0 16 10730.0 16Q10699.0 16 10682.5 -8.5Q10666.0 -33 10666.0 -68V-131Q10666.0 -320 10666.5 -491.5Q10667.0 -663 10671.5 -810.5Q10676.0 -958 10686.5 -1077.5Q10697.0 -1197 10718.0 -1281.5Q10739.0 -1366 10771.5 -1412.0Q10804.0 -1458 10853.0 -1458Q10895.0 -1458 10924.0 -1435.0Q10953.0 -1412 10971.0 -1372.5Q10989.0 -1333 10997.0 -1280.5Q11005.0 -1228 11005.0 -1170Q11005.0 -1052 10983.5 -938.5Q10962.0 -825 10926.0 -717.0Q10890.0 -609 10842.0 -506.5Q10794.0 -404 10741.0 -307Q10741.0 -289 10741.0 -264.0Q10741.0 -239 10741.0 -214.0Q10741.0 -189 10741.0 -167.0Q10741.0 -145 10741.0 -132ZM10742.0 -454Q10784.0 -546 10818.5 -633.5Q10853.0 -721 10877.5 -808.0Q10902.0 -895 10916.0 -984.5Q10930.0 -1074 10930.0 -1171Q10930.0 -1187 10928.5 -1222.0Q10927.0 -1257 10919.5 -1293.0Q10912.0 -1329 10896.5 -1356.0Q10881.0 -1383 10853.0 -1383Q10831.0 -1383 10815.0 -1353.5Q10799.0 -1324 10787.0 -1273.5Q10775.0 -1223 10767.0 -1156.0Q10759.0 -1089 10754.0 -1014.0Q10749.0 -939 10746.5 -860.0Q10744.0 -781 10743.0 -706.5Q10742.0 -632 10742.0 -567.0Q10742.0 -502 10742.0 -454Z" clip-path="url(#c9)"/><path d="M12205.0 -279Q12201.0 -271 12188.5 -245.5Q12176.0 -220 12156.5 -187.0Q12137.0 -154 12111.0 -118.0Q12085.0 -82 12053.0 -52.0Q12021.0 -22 11984.0 -2.5Q11947.0 17 11906.0 17Q11848.0 17 11808.5 -20.0Q11769.0 -57 11751.0 -113Q11717.0 -56 11670.0 -22.5Q11623.0 11 11576.0 11Q11539.0 11 11509.0 -2.5Q11479.0 -16 11458.0 -40.5Q11437.0 -65 11425.5 -98.0Q11414.0 -131 11414.0 -170Q11414.0 -248 11440.5 -307.5Q11467.0 -367 11508.0 -407.0Q11549.0 -447 11598.5 -467.0Q11648.0 -487 11694.0 -487Q11725.0 -487 11751.0 -478.5Q11777.0 -470 11795.5 -460.0Q11814.0 -450 11824.0 -441.5Q11834.0 -433 11835.0 -432Q11846.0 -419 11846.0 -405Q11846.0 -390 11835.0 -378.5Q11824.0 -367 11809.0 -367Q11793.0 -367 11782.0 -378Q11780.0 -380 11773.0 -385.5Q11766.0 -391 11754.0 -397.0Q11742.0 -403 11725.5 -407.5Q11709.0 -412 11688.0 -412Q11657.0 -412 11622.0 -398.0Q11587.0 -384 11558.0 -354.5Q11529.0 -325 11509.5 -280.5Q11490.0 -236 11490.0 -175Q11490.0 -156 11494.0 -136.5Q11498.0 -117 11508.0 -101.0Q11518.0 -85 11535.0 -75.0Q11552.0 -65 11577.0 -65Q11595.0 -65 11618.5 -77.0Q11642.0 -89 11663.5 -114.0Q11685.0 -139 11702.5 -177.0Q11720.0 -215 11727.0 -267Q11729.0 -281 11740.0 -290.5Q11751.0 -300 11766.0 -300Q11780.0 -300 11790.5 -289.0Q11801.0 -278 11802.0 -264Q11803.0 -245 11806.0 -210.5Q11809.0 -176 11819.5 -142.0Q11830.0 -108 11851.0 -83.0Q11872.0 -58 11909.0 -58Q11933.0 -58 11956.5 -71.0Q11980.0 -84 12002.5 -105.5Q12025.0 -127 12045.5 -154.5Q12066.0 -182 12083.0 -210.0Q12100.0 -238 12113.0 -264.0Q12126.0 -290 12135.0 -309Q12140.0 -320 12149.5 -326.0Q12159.0 -332 12170.0 -332Q12187.0 -332 12197.5 -319.5Q12208.0 -307 12208.0 -293Q12208.0 -286 12205.0 -279Z" clip-path="url(#c10)"/><path d="M12358.0 -90Q12374.0 -123 12395.0 -162.5Q12416.0 -202 12440.0 -242.5Q12464.0 -283 12490.5 -323.0Q12517.0 -363 12546.0 -399Q12575.0 -434 12604.5 -449.5Q12634.0 -465 12660.0 -465Q12712.0 -465 12737.0 -427.0Q12762.0 -389 12762.0 -333Q12762.0 -320 12760.5 -301.5Q12759.0 -283 12757.5 -262.0Q12756.0 -241 12754.5 -219.5Q12753.0 -198 12753.0 -179Q12753.0 -155 12755.5 -133.0Q12758.0 -111 12765.0 -94.5Q12772.0 -78 12785.0 -68.5Q12798.0 -59 12819.0 -59Q12857.0 -59 12893.0 -88.5Q12929.0 -118 12959.5 -158.5Q12990.0 -199 13012.5 -241.0Q13035.0 -283 13046.0 -309Q13051.0 -320 13060.5 -326.0Q13070.0 -332 13081.0 -332Q13098.0 -332 13108.5 -319.5Q13119.0 -307 13119.0 -293Q13119.0 -286 13116.0 -279Q13112.0 -271 13100.0 -246.0Q13088.0 -221 13068.5 -188.5Q13049.0 -156 13023.0 -119.5Q12997.0 -83 12965.5 -53.0Q12934.0 -23 12897.5 -3.0Q12861.0 17 12821.0 17Q12776.0 17 12748.0 -0.5Q12720.0 -18 12704.0 -46.5Q12688.0 -75 12682.5 -109.5Q12677.0 -144 12677.0 -179Q12677.0 -194 12678.5 -213.0Q12680.0 -232 12682.5 -253.0Q12685.0 -274 12686.5 -295.0Q12688.0 -316 12688.0 -335Q12688.0 -367 12678.0 -378.5Q12668.0 -390 12660.0 -390Q12644.0 -390 12623.5 -371.5Q12603.0 -353 12580.5 -323.0Q12558.0 -293 12534.5 -255.5Q12511.0 -218 12490.5 -181.0Q12470.0 -144 12452.5 -110.5Q12435.0 -77 12425.0 -55Q12405.0 -13 12385.0 1.5Q12365.0 16 12344.0 16Q12315.0 16 12297.5 -1.5Q12280.0 -19 12280.0 -51Q12280.0 -58 12282.0 -78.5Q12284.0 -99 12287.0 -127.5Q12290.0 -156 12293.0 -189.0Q12296.0 -222 12299.0 -254.5Q12302.0 -287 12304.0 -315.0Q12306.0 -343 12306.0 -362Q12306.0 -387 12304.0 -410.0Q12302.0 -433 12296.0 -438Q12287.0 -435 12264.0 -400.5Q12241.0 -366 12205.0 -279Q12200.0 -268 12190.0 -262.0Q12180.0 -256 12169.0 -256Q12152.0 -256 12142.0 -267.5Q12132.0 -279 12132.0 -294Q12132.0 -301 12135.0 -309Q12180.0 -416 12219.5 -466.5Q12259.0 -517 12298.0 -517Q12321.0 -517 12337.0 -505.5Q12353.0 -494 12362.5 -475.0Q12372.0 -456 12376.5 -433.0Q12381.0 -410 12381.0 -386Q12381.0 -368 12378.5 -330.0Q12376.0 -292 12372.0 -248.5Q12368.0 -205 12364.5 -162.0Q12361.0 -119 12358.0 -90Z" clip-path="url(#c11)"/></g></svg>